/* XPM */
static char *_7e6696371c54972a9750a0798397845j4R4eh0GiRD9eHl5[] = {
/* columns rows colors chars-per-pixel */
"50 50 107 2 ",
"   c #376E30",
".  c #3A6D32",
"X  c #3C7133",
"o  c #3B7334",
"O  c #3F7737",
"+  c #3E7837",
"@  c #3F7A38",
"#  c #6B5337",
"$  c #695239",
"%  c #6A5338",
"&  c #6C5339",
"*  c #6E553A",
"=  c #6B543C",
"-  c #6D563C",
";  c #71573C",
":  c #735A3F",
">  c #765A3E",
",  c #775A3E",
"<  c #7B5C3F",
"1  c #476737",
"2  c #416D34",
"3  c #4A6C37",
"4  c #4C6D37",
"5  c #4D6E3B",
"6  c #5F643A",
"7  c #526B38",
"8  c #566B3A",
"9  c #526D3A",
"0  c #576F3C",
"q  c #58693A",
"w  c #5E6E3F",
"e  c #427437",
"r  c #47753A",
"t  c #4B733A",
"y  c #4E713B",
"u  c #407A38",
"i  c #437E3B",
"p  c #457F3B",
"a  c #4B7F3E",
"s  c #4F7F3D",
"d  c #5A713D",
"f  c #5D703D",
"g  c #59753E",
"h  c #55783F",
"j  c #527E3F",
"k  c #62683C",
"l  c #60703F",
"z  c #64773F",
"x  c #735A40",
"c  c #755B40",
"v  c #775C40",
"b  c #735E46",
"n  c #785B41",
"m  c #785C41",
"M  c #7B5D40",
"N  c #7B5E44",
"B  c #7E5F44",
"V  c #537740",
"C  c #5F7641",
"Z  c #527F41",
"A  c #597C41",
"S  c #6E6940",
"D  c #6B6C42",
"F  c #7E6143",
"G  c #7A6147",
"H  c #7E6044",
"J  c #7A6645",
"K  c #7E6746",
"L  c #706F42",
"P  c #7F6844",
"I  c #7F6848",
"U  c #647243",
"Y  c #6B7343",
"T  c #6C7142",
"R  c #697344",
"E  c #806146",
"W  c #846345",
"Q  c #836447",
"!  c #846445",
"~  c #816348",
"^  c #836448",
"/  c #47803E",
"(  c #4B813E",
")  c #4D823F",
"_  c #4B843D",
"`  c #4C843E",
"'  c #4B883E",
"]  c #4E893D",
"[  c #4E8C3F",
"{  c #508F3F",
"}  c #4A8340",
"|  c #4C8240",
" . c #4C8441",
".. c #4F8840",
"X. c #518F40",
"o. c #518B44",
"O. c #55874B",
"+. c #539141",
"@. c #559342",
"#. c #559540",
"$. c #569544",
"%. c #5B9B44",
"&. c #5B9C45",
"*. c #5D9E44",
"=. c #5E9C48",
"-. c #59A043",
";. c #5CA044",
/* pixels */
"Z ) ) | X.*.X.] ;.*.*.*.*.*.] @.&...| | | ..=.X...*.X.] %.*.*._ ` ` ( X.=.X.] *.#.` ` @.=.] |  .$.$.",
"#.#.#.#.@.X.] ] ;.#.{ { X.X.` ..X.` ' #.] ` X.] ` X.@.#.X.X.X.` ..#._ ` X.' ` X.+.#.$.%.*.#.$.#.+.+.",
"=.;.;.*.$.` ` ] &.X._ _ ( | ` ` ` | ] &.[ ` ` _ ` ` @.%.' _ _ ` X.*.` ` ` ` ) _ +.*.*.*.*.*.*.;.[ o.",
"s X.-.[ X.*.X.` ` ` ` =.[ ` | | ` ) ` _ ` ( ` $.%.` _ _ _ X.*.` _ _ ` | | | ` ` _ ` ` ` ` ` +.;.[ | ",
"O.] [ ` ` X...` ` ` _ X.` ( ` X.$.] ` ` ( | ) ..[ _ ` ` ` ] X._ ( ( ` | | | ` ` ` | ` ` ` ` ] { ` | ",
"O.( ( ) ) ( ) ) ( | | ` ` ) ) +.%...| | | ( ( | ( | | | | ` ` ` ) ( | | | | ` | ( | | | | | | | ` | ",
"| p ( ` ` ` ` ` ( ` ` ` ` ) ` ` ' ( | | | ( ( ` ( ) ` | | ` ` _ ` ( ` | | | ) ( ` | | | | | | | ` ( ",
"| u i ( | ) C R R h p ( | ) U Y R Z | | | | ) C z ) ` | | | ) z R R a p _ | j L A ) | | | | | | ` ( ",
"V e + / ( ( T K Q f e | | ) P K J A | | | ` ` L J | ( ( ( ( ) L K Q r i ( | A Q R j ` | ( ` ) j ) a ",
"D 7 O @ p ( ) C ! C ( | | ) J L Z | | | | ` ` L J r u u ( ` _ j U Q r i ( | A Q K L ) | ( _ g S h V ",
"b 6 8 r p ( A R ! C / / } | K U / ( / / / / ` L K w t u ( Z C ( C Q r u p ( A Q ^ K ) | ` ( d c g V ",
"b ; : h ( ( L Q Q d O O / | K l O O + O + @ ( L Q Q f u ( C K r 0 Q r O O p A Q ^ K ( ( | e 8 c 9 5 ",
"b ; : y u e D Q Q 8 . . O r K l O . . . O @ u S ^ Q f + u d P 2 7 Q 2 X O u V E Q K e p ( X 7 c 9 5 ",
"b * : 3 O e D Q Q k 9 7 r r J D 0 9 9 9 e + O S Q Q f + @ d Q q k Q q 4 O O y Q Q P e i / 9 6 c 9 3 ",
"b $ $ 1 X e D Q Q ^ ^ K 0 r K Q Q Q Q K y O . S Q Q f O + d Q Q Q Q Q S . . 3 Q Q P e + O J m > 1 1 ",
"b $ $ ; 6 . k Q Q ^ K 2 . 2 J ! Q Q Q K 3 2 K Q Q Q q .   8 Q Q Q Q ^ Q Q Q Q ^ Q P e + @ S : $ # * ",
"b $ $ : - 7 S Q Q ^ Q q q q K Q Q Q Q Q k k Q Q Q Q S q q S Q Q Q Q Q Q ^ Q Q Q ! K O o o c > $ * - ",
"b $ $ : x > B ^ Q ^ Q Q Q Q Q ^ Q Q Q Q Q Q Q Q Q ^ Q Q Q Q Q Q Q Q Q Q Q Q Q Q ! K .   . J < $ : : ",
"b $ $ : m Q ! ! Q Q Q Q Q Q Q Q Q Q Q Q Q Q ^ m n W Q Q Q Q Q Q H > Q Q Q Q Q Q B < K I I Q < $ : > ",
"b $ $ : m F Q Q m E Q E E Q Q E B F H F E Q H < m E Q Q Q Q Q Q E m H E Q Q Q Q E B Q Q ^ ! < $ : > ",
"b $ $ : c c H E > H ^ v E ^ ^ B > > c c E E > > < Q Q Q Q Q ^ ^ ^ Q > m Q ! ! Q Q Q Q Q Q Q < & : c ",
"b $ $ : c > < m F E ^ > < m m B H m c > m m E < < Q H m E E m m m m > m Q m m Q Q Q Q Q Q > ; : - - ",
"b $ * : c > > m Q Q Q > > > > m E m c > > < E < < E m n F H > > > < v m Q m m E E E E E Q * * c * $ ",
"b - : c c c F ^ ^ ^ ^ > c c c c v v c > E E > > c c n > > > c c m ^ v m Q m c c c > > B Q * * c * * ",
"G : > c c c m B m B m > m B v c > > m H H m > > c c v > > > c c m ^ F E Q m v H m > > m E * & - $ - ",
"^ > > c c c > > > c c > H ^ m c c c m ^ m c c c c c c > > c c c m ^ Q Q Q m m ^ B c > B E - $ $ $ - ",
"b $ # : c c E E > c c > > > c > c c m ^ m c c c c c > m ^ E c c > > E E > > > > > c c c c & $ $ $ $ ",
"b $ $ * ; c E E > > > E n > E m c c c m v c c c c c c c m m c c c c m m F m m E m c c c c & $ $ $ $ ",
"b $ $ $ - c F E > n v Q m v ~ N > m m v v c c c c c c c c c c c c > > m E m m E m v > c c & $ * # $ ",
"b $ $ $ - c > c > B ^ > > > n > v E ^ ^ m c c c c c c c c c c c c > E F > > > > B Q > c > & - c * $ ",
"b $ $ $ - c > c > m m c c > > m E m m m c c c c c c > > E B > v > > m m > > > > n m > m E * & * $ $ ",
"b $ $ $ * : > c c c c m v c c m E m < < n c c c c c > m E E n m n > c c c c c c c c > m H * & $ $ * ",
"b $ $ $ & & : > c > c ~ m c c v < H Q E m c c c c c B Q Q Q Q ^ H c c c c c c c c c > ; & $ $ $ $ * ",
"b $ $ $ & & * ; c c c B B B v m F Q Q ^ m c c c v m E Q Q Q Q B m c c c c c v H m > ; & $ $ $ $ $ * ",
"b $ $ & $ $ $ & : > c > B E n m E E E E m m c c m ! E E E E E > > c c c m v m ~ m > # $ $ & $ $ $ * ",
"b $ $ : $ $ $ $ $ ; c > c c c n n c n n E E c c m E B n v v v > c c c m ~ m c v v c # $ & $ $ $ $ * ",
"b $ $ - $ $ $ $ * : c c c > c > c m m m H H m v v B m > > c > > c c c m H m c c > $ $ $ $ & ! * $ * ",
"b $ $ $ $ $ $ $ c c c c c c c > v E ^ ^ m m ~ m c c c c c c c c c c c c c c > > > $ $ $ $ & ! c * * ",
"b $ $ $ $ $ $ $ $ ; c c c c c c > > > c c c > > c c c c c c c c c c c c c c : $ $ $ $ $ $ $ ! & $ = ",
"$ ; $ $ & $ $ $ $ $ ; ; > c > $ $ $ $ $ $ c c c c c c c c c c c c c c > ; ; ; - * $ $ $ ; $ $ $ ; c ",
"$ m & # $ $ $ $ $ $ $ $ : c > B Q ^ E > c $ $ $ > > > > > c c c c c > : $ # * c ; $ x Q & $ & > > > ",
"> $ > $ $ $ $ $ $ $ $ $ Q & > v n n n c c c c $ $ $ & * : c c c : * * & $ $ $ * $ $ $ & & $ : > $ > ",
"> $ $ $ $ $ $ $ $ $ $ $ $ $ ; ; ; ; ; ; ; ; ; ; - $ $ $ ; ; ; ; * $ - * $ $ $ $ $ $ $ $ $ $ > > $ > ",
"$ $ $ $ $ $ $ $ $ $ $ $ $ $ $ $ $ $ $ $ $ $ $ : c & $ $ $ $ $ $ $ $ : ; $ $ & $ $ $ $ $ $ $ $ > $ > ",
"$ $ $ $ $ $ $ $ $ $ $ $ $ $ $ $ $ > $ $ > $ $ > $ $ $ > > $ > > $ > $ $ $ $ $ $ $ $ $ $ $ $ $ $ $ > ",
"$ $ $ $ $ $ $ $ $ $ $ $ $ $ $ H $ $ $ $ $ $ > > $ $ > > $ $ > H $ $ $ $ $ $ $ $ $ $ $ $ $ $ $ $ $ $ ",
"$ $ $ $ $ $ $ $ $ $ $ $ $ $ $ $ $ $ $ $ $ H H $ $ $ H $ $ $ H $ $ $ $ $ > $ $ $ $ $ > $ > $ $ $ $ $ ",
"$ $ H H $ $ H H $ $ $ $ > $ $ $ $ $ $ $ $ $ $ $ $ $ $ $ $ $ $ > $ $ $ $ $ $ $ H > > $ $ $ $ $ $ $ $ ",
"$ > $ > $ $ $ $ $ H $ > $ > > $ $ $ $ $ $ $ $ $ $ $ $ $ $ $ $ $ $ $ $ $ $ $ $ $ $ $ $ $ > $ $ > $ > ",
"$ $ $ > $ $ $ $ $ > > $ > $ $ $ > $ > > > $ $ $ $ $ $ $ $ $ $ $ $ $ $ $ $ $ $ $ $ $ # > $ $ > > $ > "
};
