/* XPM */
static char *_45e45079d5e40c2829a5562285e0c55xwPt8mm1UcixWZnc[] = {
/* columns rows colors chars-per-pixel */
"50 50 2 1 ",
"  c #372408",
". c #95FFFF",
/* pixels */
"..........   ..........................   ........",
"..........   ..........................   ........",
"..........   ..........................   ........",
"..........   ..........................   ........",
"..........   ..........................   ........",
"......                                        ....",
"......                                        ....",
"......                                        ....",
"..........   ..........................   ........",
"..........   ..........................   ........",
"..........   ..........................   ........",
"..........   ..........................   ........",
"..........   ..........................   ........",
"..........   ..........................   ........",
"..........   ..........................   ........",
"..........   ..........................   ........",
"..........   ..........................   ........",
"......                                        ....",
"......                                        ....",
"......                                        ....",
"..........   ..........................   ........",
"..........   ..........................   ........",
"..........   ..........................   ........",
"..........   ..........................   ........",
"..........   ..........................   ........",
"..........   ..........................   ........",
"..........   ..........................   ........",
"..........   ..........................   ........",
"..........   ..........................   ........",
"......                                        ....",
"......                                        ....",
"......                                        ....",
"..........   ..........................   ........",
"..........   ..........................   ........",
"..........   ..........................   ........",
"..........   ..........................   ........",
"..........   ..........................   ........",
"..........   ..........................   ........",
"..........   ..........................   ........",
"..........   ..........................   ........",
"..........   ..........................   ........",
"......                                        ....",
"......                                        ....",
"......                                        ....",
"..........   ..........................   ........",
"..........   ..........................   ........",
"..........   ..........................   ........",
"..........   ..........................   ........",
"..........   ..........................   ........",
"..........   ..........................   ........"
};
