/* XPM */
static char *_c14a31689864bed8ac82f79ee93fd25U04xP9dG9NeUsoEE[] = {
/* columns rows colors chars-per-pixel */
"14 14 2 1 ",
"  c #A5A3A2",
". c #95FFFF",
/* pixels */
"... ...... ...",
"... ...... ...",
"..          ..",
"... ...... ...",
"... ...... ...",
"... ...... ...",
"... ...... ...",
"..          ..",
"... ...... ...",
"... ...... ...",
"... ...... ...",
"... ...... ...",
"..          ..",
"... ...... ..."
};
