/* XPM */
static char *f570350223dd42b3cdf64475f3575fcbJBIM556utcjXeJfi[] = {
/* columns rows colors chars-per-pixel */
"50 50 7 1 ",
"  c black",
". c #603900",
"X c #42466F",
"o c #9E7C73",
"O c #7E9564",
"+ c #D8B38B",
"@ c #FEDCBD",
/* pixels */
"XXXXXXXXXXXXXXXXXXXXXXXXXXXXXXXXXXXXXXXXXXXXXXXXXX",
"XXXXXXXXXXXXXXXXXXXXXXXXXXXXXXXXXXXXXXXXXXXXXXXXXX",
"XXXXXXXXXXXXXXXXXXXXXXXXXXXXXXXXXXXXXXXXXXXXXXXXXX",
"XXXXXXXXXXXXXXXXX               XXXXXXXXXXXXXXXXXX",
"XXXXXXXXXXXXXXXXX               XXXXXXXXXXXXXXXXXX",
"XXXXXXXXXXXXXXXXX               XXXXXXXXXXXXXXXXXX",
"XXXXXXXXXXX      ooooooooooooooo            XXXXXX",
"XXXXXXXXXXX      ooooooooooooooo            XXXXXX",
"XXXXXXXXXXX      ooooooooooooooo            XXXXXX",
"XXXXXXXX   oooooooooooooooooooooooooooooo   XXXXXX",
"XXXXXXXX   oooooooooooooooooooooooooooooo   XXXXXX",
"XXXXXXXX   oooooooooooooooooooooooooooooo   XXXXXX",
"XXXXXXXX   +++ooooooooooooooooooooo...   XXXXXXXXX",
"XXXXXXXX   +++ooooooooooooooooooooo...   XXXXXXXXX",
"XXXXXXXX   +++ooooooooooooooooooooo...   XXXXXXXXX",
"XXXXXXXX   ooo+++   oooooo   ooo+++......   XXXXXX",
"XXXXXXXX   ooo+++   oooooo   ooo+++......   XXXXXX",
"XXXXXXXX   ooo+++   oooooo   ooo+++......   XXXXXX",
"XXXXXXXX   oooooo      ooo      ......   XXXXXXXXX",
"XXXXXXXX   oooooo      ooo      ......   XXXXXXXXX",
"XXXXXXXX   oooooo      ooo      ......   XXXXXXXXX",
"XXXXXXXXXXX         @@@               XXXXXXXXXXXX",
"XXXXXXXXXXX         @@@               XXXXXXXXXXXX",
"XXXXXXXXXXX         @@@               XXXXXXXXXXXX",
"XXXXXXXXXXX   @@@   @@@@@@@@@   @@@   XXXXXXXXXXXX",
"XXXXXXXXXXX   @@@   @@@@@@@@@   @@@   XXXXXXXXXXXX",
"XXXXXXXXXXX   @@@   @@@@@@@@@   @@@   XXXXXXXXXXXX",
"XXXXXXXXXXXXXX   @@@@@@@@@@@@@@@   XXXXXXXXXXXXXXX",
"XXXXXXXXXXXXXX   @@@@@@@@@@@@@@@   XXXXXXXXXXXXXXX",
"XXXXXXXXXXXXXX   @@@@@@@@@@@@@@@   XXXXXXXXXXXXXXX",
"XXXXXXXXXXX   OOO               OOO   XXXXXXXXXXXX",
"XXXXXXXXXXX   OOO               OOO   XXXXXXXXXXXX",
"XXXXXXXXXXX   OOO               OOO   XXXXXXXXXXXX",
"XXXXXXXX   OOO   oooOOOOOOOOOooo   OOO   XXXXXXXXX",
"XXXXXXXX   OOO   oooOOOOOOOOOooo   OOO   XXXXXXXXX",
"XXXXXXXX   OOO   oooOOOOOOOOOooo   OOO   XXXXXXXXX",
"XXXXXXXX   @@@   ooooooooooooooo   @@@   XXXXXXXXX",
"XXXXXXXX   @@@   ooooooooooooooo   @@@   XXXXXXXXX",
"XXXXXXXX   @@@   ooooooooooooooo   @@@   XXXXXXXXX",
"XXXXXXXXXXX      oooooo   oooooo      XXXXXXXXXXXX",
"XXXXXXXXXXX      oooooo   oooooo      XXXXXXXXXXXX",
"XXXXXXXXXXX      oooooo   oooooo      XXXXXXXXXXXX",
"XXXXXXXXXXXXXXXXX   @@@   @@@   XXXXXXXXXXXXXXXXXX",
"XXXXXXXXXXXXXXXXX   @@@   @@@   XXXXXXXXXXXXXXXXXX",
"XXXXXXXXXXXXXXXXX   @@@   @@@   XXXXXXXXXXXXXXXXXX",
"XXXXXXXXXXXXXXXXXXXX         XXXXXXXXXXXXXXXXXXXXX",
"XXXXXXXXXXXXXXXXXXXX         XXXXXXXXXXXXXXXXXXXXX",
"XXXXXXXXXXXXXXXXXXXX         XXXXXXXXXXXXXXXXXXXXX",
"XXXXXXXXXXXXXXXXXXXXXXXXXXXXXXXXXXXXXXXXXXXXXXXXXX",
"XXXXXXXXXXXXXXXXXXXXXXXXXXXXXXXXXXXXXXXXXXXXXXXXXX"
};
