/* XPM */
static char *_0ed80aa923c410dffeb4b34165cfbd5BGjlV71c2bJk5GHN[] = {
/* columns rows colors chars-per-pixel */
"50 50 7 1 ",
"  c black",
". c #603900",
"X c #9E7C73",
"o c #7E9564",
"O c #D8B38B",
"+ c #FEDCBD",
"@ c #95FFFF",
/* pixels */
"@@@@@@@@@@@@@@@@@@@@@@@@@@@@@@@@@@@@@@@@@@@@@@@@@@",
"@@@@@@@@@@@@@@@@@@@@@@@@@@@@@@@@@@@@@@@@@@@@@@@@@@",
"@@@@@@@@@@@@@@@@@@@@@@@@@@@@@@@@@@@@@@@@@@@@@@@@@@",
"@@@@@@@@@@@@@@@@@               @@@@@@@@@@@@@@@@@@",
"@@@@@@@@@@@@@@@@@               @@@@@@@@@@@@@@@@@@",
"@@@@@@@@@@@@@@@@@               @@@@@@@@@@@@@@@@@@",
"@@@@@@@@@@@      XXXXXXXXXXXXXXX            @@@@@@",
"@@@@@@@@@@@      XXXXXXXXXXXXXXX            @@@@@@",
"@@@@@@@@@@@      XXXXXXXXXXXXXXX            @@@@@@",
"@@@@@@@@   XXXXXXXXXXXXXXXXXXXXXXXXXXXXXX   @@@@@@",
"@@@@@@@@   XXXXXXXXXXXXXXXXXXXXXXXXXXXXXX   @@@@@@",
"@@@@@@@@   XXXXXXXXXXXXXXXXXXXXXXXXXXXXXX   @@@@@@",
"@@@@@@@@   OOOXXXXXXXXXXXXXXXXXXXXX...   @@@@@@@@@",
"@@@@@@@@   OOOXXXXXXXXXXXXXXXXXXXXX...   @@@@@@@@@",
"@@@@@@@@   OOOXXXXXXXXXXXXXXXXXXXXX...   @@@@@@@@@",
"@@@@@@@@   XXXOOO   XXXXXX   XXXOOO......   @@@@@@",
"@@@@@@@@   XXXOOO   XXXXXX   XXXOOO......   @@@@@@",
"@@@@@@@@   XXXOOO   XXXXXX   XXXOOO......   @@@@@@",
"@@@@@@@@   XXXXXX      XXX      ......   @@@@@@@@@",
"@@@@@@@@   XXXXXX      XXX      ......   @@@@@@@@@",
"@@@@@@@@   XXXXXX      XXX      ......   @@@@@@@@@",
"@@@@@@@@@@@         +++               @@@@@@@@@@@@",
"@@@@@@@@@@@         +++               @@@@@@@@@@@@",
"@@@@@@@@@@@         +++               @@@@@@@@@@@@",
"@@@@@@@@@@@   +++   +++++++++   +++   @@@@@@@@@@@@",
"@@@@@@@@@@@   +++   +++++++++   +++   @@@@@@@@@@@@",
"@@@@@@@@@@@   +++   +++++++++   +++   @@@@@@@@@@@@",
"@@@@@@@@@@@@@@   +++++++++++++++   @@@@@@@@@@@@@@@",
"@@@@@@@@@@@@@@   +++++++++++++++   @@@@@@@@@@@@@@@",
"@@@@@@@@@@@@@@   +++++++++++++++   @@@@@@@@@@@@@@@",
"@@@@@@@@@@@   ooo               ooo   @@@@@@@@@@@@",
"@@@@@@@@@@@   ooo               ooo   @@@@@@@@@@@@",
"@@@@@@@@@@@   ooo               ooo   @@@@@@@@@@@@",
"@@@@@@@@   ooo   XXXoooooooooXXX   ooo   @@@@@@@@@",
"@@@@@@@@   ooo   XXXoooooooooXXX   ooo   @@@@@@@@@",
"@@@@@@@@   ooo   XXXoooooooooXXX   ooo   @@@@@@@@@",
"@@@@@@@@   +++   XXXXXXXXXXXXXXX   +++   @@@@@@@@@",
"@@@@@@@@   +++   XXXXXXXXXXXXXXX   +++   @@@@@@@@@",
"@@@@@@@@   +++   XXXXXXXXXXXXXXX   +++   @@@@@@@@@",
"@@@@@@@@@@@      XXXXXX   XXXXXX      @@@@@@@@@@@@",
"@@@@@@@@@@@      XXXXXX   XXXXXX      @@@@@@@@@@@@",
"@@@@@@@@@@@      XXXXXX   XXXXXX      @@@@@@@@@@@@",
"@@@@@@@@@@@@@@   +++   @@@   +++   @@@@@@@@@@@@@@@",
"@@@@@@@@@@@@@@   +++   @@@   +++   @@@@@@@@@@@@@@@",
"@@@@@@@@@@@@@@   +++   @@@   +++   @@@@@@@@@@@@@@@",
"@@@@@@@@@@@@@@@       @@@@@       @@@@@@@@@@@@@@@@",
"@@@@@@@@@@@@@@@       @@@@@       @@@@@@@@@@@@@@@@",
"@@@@@@@@@@@@@@@@@   @@@@@@@@@   @@@@@@@@@@@@@@@@@@",
"@@@@@@@@@@@@@@@@@@@@@@@@@@@@@@@@@@@@@@@@@@@@@@@@@@",
"@@@@@@@@@@@@@@@@@@@@@@@@@@@@@@@@@@@@@@@@@@@@@@@@@@"
};
