/* XPM */
static char *b2f85cff6db14492e089aa5f14f0a5f6kMxsbrceUzXyd4Fo[] = {
/* columns rows colors chars-per-pixel */
"50 50 8 1 ",
"  c None",
". c black",
"X c #373737",
"o c #444444",
"O c #747474",
"+ c gray50",
"@ c #9D9D9D",
"# c #BCBCBC",
/* pixels */
"   ........................................       ",
"   ........................................       ",
"   ........................................       ",
"...##########...Xoooooooooooooooooooooooooo...    ",
"...##########...Xoooooooooooooooooooooooooo...    ",
"...##########...Xoooooooooooooooooooooooooo...    ",
"...##########...Xoooooooooooooooooooooooooo...    ",
"...##########..........oooooooooooooooooooo...    ",
"...##########..........oooooooooooooooooooo...    ",
"...##########..........oooooooooooooooooooo...    ",
"...##########...+@@@@@@...ooooooooooooooooo...    ",
"...##########...+@@@@@@...ooooooooooooooooo...    ",
"...##########...+@@@@@@...ooooooooooooooooo...    ",
"...##########...+@@@@@@..........oooooooooo...    ",
"...##########...+@@@@@@..........oooooooooo...    ",
"...##########...+@@@@@@..........oooooooooo...    ",
"...##########...+@@@@@@..........oooooooooo...    ",
"...##########...+@@@@@@...OOOOOOO...ooooooo...    ",
"...##########...+@@@@@@...OOOOOOO...ooooooo...    ",
"...##########...+@@@@@@...OOOOOOO...ooooooo...    ",
"...##########...+@@@@@@...OOOOOOO.............    ",
"...##########...+@@@@@@...OOOOOOO.............    ",
"...##########...+@@@@@@...OOOOOOO.............    ",
"...##########...+@@@@@@...OOOOOOO...OOOOOOO...    ",
"...##########...+@@@@@@...OOOOOOO...OOOOOOO...    ",
"...##########...+@@@@@@...OOOOOOO...OOOOOOO...    ",
"...##########...+@@@@@@...OOOOOOO...OOOOOOO...    ",
"...##########...+@@@@@@...OOOOOOO...OOOOOOO...    ",
"...##########...+@@@@@@...OOOOOOO...OOOOOOO...    ",
"...##########...+@@@@@@...OOOOOOO...OOOOOOO...    ",
"...##########...+@@@@@@...OOOOOOO...OOOOOOO...    ",
"...##########...+@@@@@@...OOOOOOO...OOOOOOO...    ",
"...##########...+@@@@@@...OOOOOOO...OOOOOOO...    ",
"...##########...+@@@@@@...OOOOOOO...OOOOOOO...    ",
"...##########...+@@@@@@...OOOOOOO...OOOOOOO...    ",
"...##########...+@@@@@@...OOOOOOO...OOOOOOO...    ",
"...##########...+@@@@@@...OOOOOOO...OOOOOOO...    ",
"...##########...+@@@@@@...OOOOOOO...OOOOOOO...    ",
"...##########...+@@@@@@...OOOOOOO...OOOOOOO...    ",
"...##########...+@@@@@@...OOOOOOO...OOOOOOO...    ",
"...##########...+@@@@@@...OOOOOOO...OOOOOOO...    ",
"...##########...+@@@@@@...OOOOOOO...OOOOOOO...    ",
"...##########...+@@@@@@...OOOOOOO...OOOOOOO...    ",
"...##########...+@@@@@@...OOOOOOO...OOOOOOO...    ",
"...##########...+@@@@@@...OOOOOOO...OOOOOOO...    ",
"...##########...+@@@@@@...OOOOOOO...OOOOOOO...    ",
"...##########...+@@@@@@...OOOOOOO...OOOOOOO...    ",
"   ........................................       ",
"   ........................................       ",
"   ........................................       "
};
