/* XPM */
static char *c38c556417ed411298ae45dd8b07ee31YTC872H6x3OAm3ka[] = {
/* columns rows colors chars-per-pixel */
"50 50 12 1 ",
"  c black",
". c #42466F",
"X c #717375",
"o c #9B4145",
"O c #7E8060",
"+ c #FFB236",
"@ c #476390",
"# c #676584",
"$ c #527DA6",
"% c #6AACBF",
"& c #848D95",
"* c white",
/* pixels */
"..................................................",
"..................................................",
".                                                .",
".                                                .",
".  ############################################  .",
".  #OOO#OOO####################################  .",
".  #OOO#OOO####################################  .",
".  #OOO#OOO####################################  .",
"*  ############################################  *",
"*  #######XXXXXXXXXXXXXXXXXXXXXXXXXXXXXXXXXXXX#  *",
"*  #OOO#OOXX    X            X               X#  *",
"*  #OOO#OOXX    X $$$ oo     X $ ++          X#  *",
"*  #OOO#OOXX    X            X               X#  *",
"*  #######XX    X $$$$$ +    X $$$$$ ++      X#  *",
"*  #######XX    X            X               X#  *",
"*  #OOO#OOXX    X            X $$$$$$$ +     X#  *",
"*  #OOO#OOXX    X $$$$ o     X               X#  *",
"*  #OOO#OOXX    X            X ooo           X#  *",
"*  #######XX    X $$ ooo     X               X#  *",
"*  #######XX    X            X ++++          X#  *",
"*  #OOO###XX    X            X $$$           X#  *",
"*  #OOO###XX    X $$$$$      X $$$$$ o       X#  *",
"*  #OOO###XX    X            X               X#  *",
"*  #######XX    X oo  ++     X               X#  *",
"*  #######XX    X            X $$$$$$ o      X#  *",
"*  #######XX    X ++++       X $$$           X#  *",
"*  #######XX    X ++++++++   X               X#  *",
"*  #######XX    X            X               X#  *",
"*  #######@@@@@@@@@@@@@@@@@@@@@@@@@@@@%%%%%%%%#  *",
"*                                                *",
"*                                                *",
"**********************       *********&***********",
"**********************       **********&**********",
"**********************       **********&**&&******",
"*******************             ********&&**&*****",
"*****************   ***********   **********&*****",
"***************   ***************   *******&&&****",
"*******************************************&&&****",
"***********XXXXXXXXXXXXXXXXXXXXXXXXXXXXX***&&&****",
"***********XXXXXXXXXXXXXXXXXXXXXXXXXXXXX***&&&****",
"***********XXXXXXXXXXXXXXXXXXXXXXXXXXXXX**********",
"***********XXXXXXXXXXXXXXXXXXXXXXXXXXXXX**********",
"***********XXXXXXXXXXXXXXXXXXXXXXXXXXXXX**********",
"***********XXXXXXXXXXXXXXXXXXXXXXXXXXXXX**********",
"**************************************************",
"**************************************************",
"..................................................",
"..................................................",
"..................................................",
".................................................."
};
