/* XPM */
static char *result[] = {
/* columns rows colors chars-per-pixel */
"50 50 7 1 ",
"  c black",
". c #603900",
"X c #9E7C73",
"o c #7E9564",
"O c #B3805C",
"+ c #D8B38B",
"@ c #FEDCBD",
/* pixels */
"OOOOOOOOOOOOOOOOOOOOOOOOOOOOOOOOOOOOOOOOOOOOOOOOOO",
"OOOOOOOOOOOOOOOOOOOOOOOOOOOOOOOOOOOOOOOOOOOOOOOOOO",
"OOOOOOOOOOOOOOOOOOOOOOOOOOOOOOOOOOOOOOOOOOOOOOOOOO",
"OOOOOOOOOOOOOOOOO               OOOOOOOOOOOOOOOOOO",
"OOOOOOOOOOOOOOOOO               OOOOOOOOOOOOOOOOOO",
"OOOOOOOOOOOOOOOOO               OOOOOOOOOOOOOOOOOO",
"OOOOOOOOOOO      XXXXXXXXXXXXXXX            OOOOOO",
"OOOOOOOOOOO      XXXXXXXXXXXXXXX            OOOOOO",
"OOOOOOOOOOO      XXXXXXXXXXXXXXX            OOOOOO",
"OOOOOOOO   XXXXXXXXXXXXXXXXXXXXXXXXXXXXXX   OOOOOO",
"OOOOOOOO   XXXXXXXXXXXXXXXXXXXXXXXXXXXXXX   OOOOOO",
"OOOOOOOO   XXXXXXXXXXXXXXXXXXXXXXXXXXXXXX   OOOOOO",
"OOOOOOOO   +++XXXXXXXXXXXXXXXXXXXXX...   OOOOOOOOO",
"OOOOOOOO   +++XXXXXXXXXXXXXXXXXXXXX...   OOOOOOOOO",
"OOOOOOOO   +++XXXXXXXXXXXXXXXXXXXXX...   OOOOOOOOO",
"OOOOOOOO   XXX+++   XXXXXX   XXX+++......   OOOOOO",
"OOOOOOOO   XXX+++   XXXXXX   XXX+++......   OOOOOO",
"OOOOOOOO   XXX+++   XXXXXX   XXX+++......   OOOOOO",
"OOOOOOOO   XXXXXX      XXX      ......   OOOOOOOOO",
"OOOOOOOO   XXXXXX      XXX      ......   OOOOOOOOO",
"OOOOOOOO   XXXXXX      XXX      ......   OOOOOOOOO",
"OOOOOOOOOOO         @@@               OOOOOOOOOOOO",
"OOOOOOOOOOO         @@@               OOOOOOOOOOOO",
"OOOOOOOOOOO         @@@               OOOOOOOOOOOO",
"OOOOOOOOOOO   @@@   @@@@@@@@@   @@@   OOOOOOOOOOOO",
"OOOOOOOOOOO   @@@   @@@@@@@@@   @@@   OOOOOOOOOOOO",
"OOOOOOOOOOO   @@@   @@@@@@@@@   @@@   OOOOOOOOOOOO",
"OOOOOOOOOOOOOO   @@@@@@@@@@@@@@@   OOOOOOOOOOOOOOO",
"OOOOOOOOOOOOOO   @@@@@@@@@@@@@@@   OOOOOOOOOOOOOOO",
"OOOOOOOOOOOOOO   @@@@@@@@@@@@@@@   OOOOOOOOOOOOOOO",
"OOOOOOOOOOO   ooo               ooo   OOOOOOOOOOOO",
"OOOOOOOOOOO   ooo               ooo   OOOOOOOOOOOO",
"OOOOOOOOOOO   ooo               ooo   OOOOOOOOOOOO",
"OOOOOOOO   ooo   XXXoooooooooXXX   ooo   OOOOOOOOO",
"OOOOOOOO   ooo   XXXoooooooooXXX   ooo   OOOOOOOOO",
"OOOOOOOO   ooo   XXXoooooooooXXX   ooo   OOOOOOOOO",
"OOOOOOOO   @@@   XXXXXXXXXXXXXXX   @@@   OOOOOOOOO",
"OOOOOOOO   @@@   XXXXXXXXXXXXXXX   @@@   OOOOOOOOO",
"OOOOOOOO   @@@   XXXXXXXXXXXXXXX   @@@   OOOOOOOOO",
"OOOOOOOOOOO      XXXXXX   XXXXXX      OOOOOOOOOOOO",
"OOOOOOOOOOO      XXXXXX   XXXXXX      OOOOOOOOOOOO",
"OOOOOOOOOOO      XXXXXX   XXXXXX      OOOOOOOOOOOO",
"OOOOOOOOOOOOOOOOO   @@@   @@@   OOOOOOOOOOOOOOOOOO",
"OOOOOOOOOOOOOOOOO   @@@   @@@   OOOOOOOOOOOOOOOOOO",
"OOOOOOOOOOOOOOOOO   @@@   @@@   OOOOOOOOOOOOOOOOOO",
"OOOOOOOOOOOOOOOOOOOO         OOOOOOOOOOOOOOOOOOOOO",
"OOOOOOOOOOOOOOOOOOOO         OOOOOOOOOOOOOOOOOOOOO",
"OOOOOOOOOOOOOOOOOOOO         OOOOOOOOOOOOOOOOOOOOO",
"OOOOOOOOOOOOOOOOOOOOOOOOOOOOOOOOOOOOOOOOOOOOOOOOOO",
"OOOOOOOOOOOOOOOOOOOOOOOOOOOOOOOOOOOOOOOOOOOOOOOOOO"
};
