/* XPM */
static char *result[] = {
/* columns rows colors chars-per-pixel */
"50 50 6 1 ",
"  c black",
". c #B3805C",
"X c #A7C940",
"o c #D4E38D",
"O c #95B1D1",
"+ c white",
/* pixels */
"..................................................",
"..................................................",
"..................................................",
"..................................................",
"..................................................",
"..................................................",
"..................................................",
"..................................................",
"..................................................",
"..................................................",
"..................................................",
"..................................................",
"..................................................",
"..................................................",
"....................          ....................",
"....................          ....................",
"....................          ....................",
".................   ++++++++++   .................",
".................   ++++++++++   .................",
".................   ++++++++++   .................",
"..............   ooooooXXXXXXX+++   ..............",
"..............   ooooooXXXXXXX+++   ..............",
"..............   ooooooXXXXXXX+++   ..............",
"..............      ooooooXXXX      ..............",
"..............      ooooooXXXX      ..............",
"..............      ooooooXXXX      ..............",
"..............   OOO          OOO   ..............",
"..............   OOO          OOO   ..............",
"..............   OOO          OOO   ..............",
"..............   ++++OOO++OOO++++   ..............",
"..............   ++++OOO++OOO++++   ..............",
"..............   ++++OOO++OOO++++   ..............",
"..............   OOO++++++++++OOO   ..............",
"..............   OOO++++++++++OOO   ..............",
"..............   OOO++++++++++OOO   ..............",
"..............   ++++OOO++OOO++++   ..............",
"..............   ++++OOO++OOO++++   ..............",
"..............   ++++OOO++OOO++++   ..............",
".................   ++++++++++   .................",
".................   ++++++++++   .................",
".................   ++++++++++   .................",
"....................          ....................",
"....................          ....................",
"....................          ....................",
"..................................................",
"..................................................",
"..................................................",
"..................................................",
"..................................................",
".................................................."
};
