/* XPM */
static char *ded767f41ab541c99e642b39d0582dc5RESnGGDHjloekMC8[] = {
/* columns rows colors chars-per-pixel */
"50 50 6 1 ",
"  c black",
". c #A7C940",
"X c #D4E38D",
"o c #95B1D1",
"O c #95FFFF",
"+ c white",
/* pixels */
"OOOOOOOOOOOOOOOOOOOOOOOOOOOOOOOOOOOOOOOOOOOOOOOOOO",
"OOOOOOOOOOOOOOOOOOOOOOOOOOOOOOOOOOOOOOOOOOOOOOOOOO",
"OOOOOOOOOOOOOOOOOOOOOOOOOOOOOOOOOOOOOOOOOOOOOOOOOO",
"OOOOOOOOOOOOOOOOOOOOOOOOOOOOOOOOOOOOOOOOOOOOOOOOOO",
"OOOOOOOOOOOOOOOOOOOOOOOOOOOOOOOOOOOOOOOOOOOOOOOOOO",
"OOOOOOOOOOOOOOOOOOOOOOOOOOOOOOOOOOOOOOOOOOOOOOOOOO",
"OOOOOOOOOOOOOOOOOOOOOOOOOOOOOOOOOOOOOOOOOOOOOOOOOO",
"OOOOOOOOOOOOOOOOOOOOOOOOOOOOOOOOOOOOOOOOOOOOOOOOOO",
"OOOOOOOOOOOOOOOOOOOOOOOOOOOOOOOOOOOOOOOOOOOOOOOOOO",
"OOOOOOOOOOOOOOOOOOOOOOOOOOOOOOOOOOOOOOOOOOOOOOOOOO",
"OOOOOOOOOOOOOOOOOOOOOOOOOOOOOOOOOOOOOOOOOOOOOOOOOO",
"OOOOOOOOOOOOOOOOOOOOOOOOOOOOOOOOOOOOOOOOOOOOOOOOOO",
"OOOOOOOOOOOOOOOOOOOOOOOOOOOOOOOOOOOOOOOOOOOOOOOOOO",
"OOOOOOOOOOOOOOOOOOOOOOOOOOOOOOOOOOOOOOOOOOOOOOOOOO",
"OOOOOOOOOOOOOOOOOOOO          OOOOOOOOOOOOOOOOOOOO",
"OOOOOOOOOOOOOOOOOOOO          OOOOOOOOOOOOOOOOOOOO",
"OOOOOOOOOOOOOOOOOOOO          OOOOOOOOOOOOOOOOOOOO",
"OOOOOOOOOOOOOOOOO   ++++++++++   OOOOOOOOOOOOOOOOO",
"OOOOOOOOOOOOOOOOO   ++++++++++   OOOOOOOOOOOOOOOOO",
"OOOOOOOOOOOOOOOOO   ++++++++++   OOOOOOOOOOOOOOOOO",
"OOOOOOOOOOOOOO   XXXXXX.......+++   OOOOOOOOOOOOOO",
"OOOOOOOOOOOOOO   XXXXXX.......+++   OOOOOOOOOOOOOO",
"OOOOOOOOOOOOOO   XXXXXX.......+++   OOOOOOOOOOOOOO",
"OOOOOOOOOOOOOO      XXXXXX....      OOOOOOOOOOOOOO",
"OOOOOOOOOOOOOO      XXXXXX....      OOOOOOOOOOOOOO",
"OOOOOOOOOOOOOO      XXXXXX....      OOOOOOOOOOOOOO",
"OOOOOOOOOOOOOO   ooo          ooo   OOOOOOOOOOOOOO",
"OOOOOOOOOOOOOO   ooo          ooo   OOOOOOOOOOOOOO",
"OOOOOOOOOOOOOO   ooo          ooo   OOOOOOOOOOOOOO",
"OOOOOOOOOOOOOO   ++++ooo++ooo++++   OOOOOOOOOOOOOO",
"OOOOOOOOOOOOOO   ++++ooo++ooo++++   OOOOOOOOOOOOOO",
"OOOOOOOOOOOOOO   ++++ooo++ooo++++   OOOOOOOOOOOOOO",
"OOOOOOOOOOOOOO   ooo++++++++++ooo   OOOOOOOOOOOOOO",
"OOOOOOOOOOOOOO   ooo++++++++++ooo   OOOOOOOOOOOOOO",
"OOOOOOOOOOOOOO   ooo++++++++++ooo   OOOOOOOOOOOOOO",
"OOOOOOOOOOOOOO   ++++ooo++ooo++++   OOOOOOOOOOOOOO",
"OOOOOOOOOOOOOO   ++++ooo++ooo++++   OOOOOOOOOOOOOO",
"OOOOOOOOOOOOOO   ++++ooo++ooo++++   OOOOOOOOOOOOOO",
"OOOOOOOOOOOOOOOOO   ++++++++++   OOOOOOOOOOOOOOOOO",
"OOOOOOOOOOOOOOOOO   ++++++++++   OOOOOOOOOOOOOOOOO",
"OOOOOOOOOOOOOOOOO   ++++++++++   OOOOOOOOOOOOOOOOO",
"OOOOOOOOOOOOOOOOOOOO          OOOOOOOOOOOOOOOOOOOO",
"OOOOOOOOOOOOOOOOOOOO          OOOOOOOOOOOOOOOOOOOO",
"OOOOOOOOOOOOOOOOOOOO          OOOOOOOOOOOOOOOOOOOO",
"OOOOOOOOOOOOOOOOOOOOOOOOOOOOOOOOOOOOOOOOOOOOOOOOOO",
"OOOOOOOOOOOOOOOOOOOOOOOOOOOOOOOOOOOOOOOOOOOOOOOOOO",
"OOOOOOOOOOOOOOOOOOOOOOOOOOOOOOOOOOOOOOOOOOOOOOOOOO",
"OOOOOOOOOOOOOOOOOOOOOOOOOOOOOOOOOOOOOOOOOOOOOOOOOO",
"OOOOOOOOOOOOOOOOOOOOOOOOOOOOOOOOOOOOOOOOOOOOOOOOOO",
"OOOOOOOOOOOOOOOOOOOOOOOOOOOOOOOOOOOOOOOOOOOOOOOOOO"
};
