/* XPM */
static char *xpm_[] = {
/* columns rows colors chars-per-pixel */
"50 50 5 1 ",
"  c black",
". c #59574A",
"X c #954453",
"o c #ADFC79",
"O c #93BD8C",
/* pixels */
"                                                  ",
"                                                  ",
"                                          XXXXX   ",
"   XXXXoooXXXXXXXXXXXX..   XXXXXXXXXXXXXXXXXXXX   ",
"   XXXXoooXXXXXXXXXXXX..   XXXXXXXXXXXXXXXXXXXX   ",
"   XXXXoooXXXXXXXXXXXX..   XXXXXXXXXXXXoooXXXXXX  ",
"   XXXXoOOOOOOOOOOXXXXX.  XXXXXXXXXXXXXoooXXXXXX  ",
"   XXXXoOOOOOOOOOOXXXXXX XX...XXXXXXXXXoooXXXXXXX ",
"   XXoooOOOOOOOOOOXXXXXXXXX...XXXXXXXXXoooXXXXXXX ",
"   XXoooOOOOOOOOOOXXXXXXXXX....XXXXXXXXoooXXXXXX  ",
"   XXoooOOOOOOOOOOXXXXXXXXXX...XXXXXXXXoooXXXXXX  ",
"   XXoooOOOOOOOOOOXXXXXXXXXXX...XXXXooooooOOOXX   ",
"   XXoooOOOOOOOOOOOOOXXXXXXXOO...XXXooooooOOOXX   ",
"   XXoooOOOOOOOOOOOOOXXXXXXXOOO....XooooooOOOXX   ",
"   XXoooOOOOOOOOOOOOOXXXXX XOOOO....oooOOOOOOXX   ",
"   oooooOOOOOOOOOOOOOXXX   XOOOOO...oooOOOOOOOO   ",
"   oooooOOOOOOOOOooooooo   oOOOOO...oooOOOOOOOO   ",
"   oooooOOOOOOOOOooooooo   oOOOOOo..oooOOOOOOOO   ",
"   oooooOOOOOOOOOooooooo   oOOOOOo..oooOOOOOOOO   ",
"   oooooOOOOOOOOOooooooo   oOOOOOo...ooOOOOOOOO   ",
"   ooOOOOOOOOOOOOooooooo   oOOOOOo...OOOOOOOOOO   ",
"   ooOOOOOOOOOOOOooooooo   oOOOOOoo..OOOOOOOOOO   ",
"   ooOOOOOOOOOOOOooooooo   oOOOOOooo.OOOOOOOOOO   ",
"          OOOOO    oo                             ",
"          OOOOO      o                   O        ",
"         OOOOO                           OOO      ",
"   OOOOOOOOOOOOOOooooooo   oOOOOOXXX..OOOOOOOOO   ",
"   OOOOOOOOOOOOOOooooooo   oOOOOOXXX...OOOOOOOO   ",
"   OOOOOOOOOOOOOOooooooo   oOOOOOXXXO..OOOOOOOO   ",
"   ooooooooOOOOOOooooooo   oOOOOOOOOO..OOOOOOOO   ",
"   ooooooooOOOOOOooooooo   oOOOOOOOO....OOOOOOO   ",
"   ooooooooOOO........oo   ooooooooO....OOOOOOO   ",
"   ooooooooOO...........   oooooooo......OOOOOO   ",
"   ooooooooO............   oooooooo........OOOO   ",
"   oooooooo......ooooo..   ooooooo...OO.....OOO   ",
"   ooooo......OOOooooo..  o.oooooo..OOOO......O   ",
"   ..........oOOOoooooo.  ..ooooo..OOOOOOO.....   ",
"   ........oooOOOooooooo ....oooo..ooooooooO...   ",
"   .....ooooooOOOooooooo.o.....o..oooooooooOO..   ",
"   ..oooooooooOOOooooooo...oo.....oooooooooOOOO   ",
"   oooooooooooOOOooooooo...ooo...ooooooooooOOOO   ",
"   oooooooooooOOOooooooo...ooo..oooooooooooOOOO   ",
"   oooooooooooOOOooooooo...oo..ooooooooooooOOOOO  ",
"   oooooooooooOOOooooooo...oo..ooooooooooooOOOOOO ",
"  ooooooooooooOOOooooooo.. oo..ooooooooooooOOOOOOO",
" oooooooooooooOOOooooooo.. o...ooooooooooooOOOOOOO",
"ooooooooooooooOOOooooooo.. o..oooooooooooooOOOOOOO",
"o oooo                 o.                         ",
"                       oo                         ",
"                                                  "
};
