/* XPM */
static char *result[] = {
/* columns rows colors chars-per-pixel */
"50 50 4 1 ",
"  c black",
". c #ADFF6F",
"X c #93BE89",
"o c #C2FFFF",
/* pixels */
"                                                  ",
"                                                  ",
"                                                  ",
"   oooo...oooooooooooooo   oooooooooooooooooooo   ",
"   oooo...oooooooooooooo   oooooooooooooooooooo   ",
"   oooo...oooooooooooooo   oooooooooooo...ooooo   ",
"   oooo.XXXXXXXXXXoooooo   oooooooooooo...ooooo   ",
"   oooo.XXXXXXXXXXoooooo   oooooooooooo...ooooo   ",
"   oo...XXXXXXXXXXoooooo   oooooooooooo...ooooo   ",
"   oo...XXXXXXXXXXoooooo   oooooooooooo...ooooo   ",
"   oo...XXXXXXXXXXoooooo   oooooooooooo...ooooo   ",
"   oo...XXXXXXXXXXoooooo   ooooooooo......XXXoo   ",
"   oo...XXXXXXXXXXXXXooo   oXXXXXooo......XXXoo   ",
"   oo...XXXXXXXXXXXXXooo   oXXXXXooo......XXXoo   ",
"   oo...XXXXXXXXXXXXXooo   oXXXXXooo...XXXXXXoo   ",
"   .....XXXXXXXXXXXXXooo   oXXXXXooo...XXXXXXXX   ",
"   .....XXXXXXXXX.......   .XXXXXooo...XXXXXXXX   ",
"   .....XXXXXXXXX.......   .XXXXX......XXXXXXXX   ",
"   .....XXXXXXXXX.......   .XXXXX......XXXXXXXX   ",
"   .....XXXXXXXXX.......   .XXXXX......XXXXXXXX   ",
"   ..XXXXXXXXXXXX.......   .XXXXX...XXXXXXXXXXX   ",
"   ..XXXXXXXXXXXX.......   .XXXXX...XXXXXXXXXXX   ",
"   ..XXXXXXXXXXXX.......   .XXXXX...XXXXXXXXXXX   ",
"                                                  ",
"                                                  ",
"                                                  ",
"   XXXXXXXXXXXXXX.......   .XXXXXoooXXXXXXXXXXX   ",
"   XXXXXXXXXXXXXX.......   .XXXXXoooXXXXXXXXXXX   ",
"   XXXXXXXXXXXXXX.......   .XXXXXoooXXXXXXXXXXX   ",
"   ........XXXXXX.......   .XXXXXXXXXXXXXXXXXXX   ",
"   ........XXXXXX.......   .XXXXXXXXXXXXXXXXXXX   ",
"   ........XXXXXX.......   ........XXXXXXXXXXXX   ",
"   ........XXXXXX.......   ........XXXXXXXXXXXX   ",
"   ........XXXXXX.......   ........XXXXXXXXXXXX   ",
"   ........XXXXXX.......   ........XXXXXXXXXXXX   ",
"   ...........XXX.......   ........XXXXXXXXXXXX   ",
"   ...........XXX.......   ........XXXXXXXXXXXX   ",
"   ...........XXX.......   ................XXXX   ",
"   ...........XXX.......   ................XXXX   ",
"   ...........XXX.......   ................XXXX   ",
"   ...........XXX.......   ................XXXX   ",
"   ...........XXX.......   ................XXXX   ",
"   ...........XXX.......   ................XXXX   ",
"   ...........XXX.......   ................XXXX   ",
"   ...........XXX.......   ................XXXX   ",
"   ...........XXX.......   ................XXXX   ",
"   ...........XXX.......   ................XXXX   ",
"                                                  ",
"                                                  ",
"                                                  "
};
